<?xml version="1.0" encoding="UTF-8"?>
<svg width="468.66" height="355.19" version="1.1" viewBox="0 0 468.66091 355.19" xml:space="preserve" xmlns="http://www.w3.org/2000/svg"><g transform="matrix(1.3333 0 0 -1.3333 -326.93 574.45)"><g transform="translate(245.2 200.53)"><path d="m0 0v62.362h42.52l2.834-17.008h-28.346v-7.37h19.842l2.835-17.008h-22.677v-20.976z"/></g><path d="m313.23 200.53h-17.008v62.362h17.008z"/><g transform="translate(477.64 200.53)"><path d="m0 0v62.362h42.52l2.834-17.008h-28.346v-7.37h19.842l2.835-17.008h-22.677v-20.976z" fill="#d2140a"/></g><path d="m545.67 200.53h-17.008v62.362h17.008z" fill="#d2140a"/><g transform="translate(330.24 262.89)"><path d="m0 0-11.339-11.339v-39.685l11.339-11.338h34.016v36.85l-17.008-2.834v-17.008h-11.339v28.346h28.347v17.008z"/></g><g transform="translate(369.92 262.89)"><path d="m0 0v-62.362h17.008v23.403l11.338 1.895v-25.298h17.008v62.362h-17.008v-19.821l-11.338-1.894v21.715z"/></g><g transform="translate(420.95 262.89)"><path d="m0 0v-17.008h14.173v-45.354h17.008v45.354h14.173v17.008z"/></g><g transform="translate(551.34 262.89)"><path d="m0 0v-17.008h14.173v-45.354h17.008v45.354h14.173v17.008z" fill="#d2140a"/></g><g transform="translate(267.64 190.33)"><path d="m0 0-4.334-10.218 3.684-3.683v-11.99h-5.435v10.221h-10.905v-10.221h-5.453v25.891h5.453v-10.218h6.716l4.352 10.218z"/></g><path d="m283.58 179.43h10.905v5.452h-10.905zm12.656 10.905 3.702-3.683v-8.973l-3.702-3.701 4.298-9.534h-5.977l-4.297 9.534h-6.68v-9.534h-5.453v25.891z"/><path d="m311.03 190.34h5.453v-25.891h-5.453z"/><g transform="translate(345.39 190.33)"><path d="m0 0 3.702-3.683v-1.769h-16.358v-4.766h12.656l3.702-3.683v-8.307l-3.702-3.683h-14.426l-3.683 3.683v1.77h16.358v4.768h-12.675l-3.683 3.683v8.304l3.683 3.683z"/></g><g transform="translate(381.7 190.33)"><path d="m0 0v-5.452h-8.179v-20.439h-5.452v20.439h-8.18v5.452z"/></g><path d="m392.5 190.34h5.452v-25.891h-5.452z"/><g transform="translate(430.61 190.33)"><path d="m0 0v-22.208l-3.376-3.376-12.965 14.625v-14.932h-5.452v22.208l3.376 3.376 12.982-14.624v14.931z"/></g><g transform="translate(463.3 190.33)"><path d="m0 0v-5.452h-16.359v-4.766h12.26v-5.452h-12.26v-4.768h16.359v-5.453h-18.128l-3.683 3.683v22.208z"/></g><g transform="translate(495.91 190.33)"><path d="m0 0v-25.891h-5.452v10.221h-10.906v-10.221h-5.453v25.891h5.453v-10.218h10.906v10.218z"/></g><path d="m512.24 179.43h10.906v5.452h-10.906zm12.658 10.905 3.701-3.683v-22.208h-5.452v9.534h-10.907v-9.534h-5.452v22.208l3.683 3.683z"/><g transform="translate(564 186.65)"><path d="m0 0v-22.208h-5.435v15.256l-6.824-7.438-6.807 7.438v-15.256h-5.452v22.208l3.376 3.359 8.883-10.256 8.902 10.256z"/></g><g transform="translate(596.69 190.33)"><path d="m0 0v-22.208l-3.376-3.376-12.965 14.625v-14.932h-5.452v22.208l3.376 3.376 12.982-14.624v14.931z"/></g><g transform="translate(420.95 312.67)"><path d="m0 0-45.353-11.34v33.123h-44.463l8.506 34.016h-31.184l14.176 56.693h196.64l14.176-56.693h-31.184l8.502-34.016h-44.459v-33.123z" fill="#fff"/></g><g transform="translate(335.91 408.16)"><path d="m0 0-5.669-22.677h62.362v-11.339h-34.016l-5.669-22.677h39.685v-28.346l22.677 5.669v79.37z"/></g><g transform="translate(523.69 430.84)"><path d="m0 0h-205.49l-17.01-68.032h31.183l-8.506-34.015h46.056v-34.714l51.022 12.756 51.022-12.756v34.714h46.052l-8.502 34.015h31.183zm-8.853-11.339 11.34-45.354h-31.181l8.502-34.016h-42.87v-31.53l-39.683 9.922-39.684-9.922v31.53h-42.871l8.506 34.016h-31.183l11.339 45.354z"/></g><g transform="translate(483.31 374.14)"><path d="m0 0h-34.016v11.338h62.362l-5.669 22.678h-79.37v-79.37l22.677-5.67v28.347h39.685z" fill="#d2140a"/></g><text transform="matrix(1 0 0 -1 373.58 43.239)" fill="#000000" font-family="'Alright Sans Regular'" font-size="12px"/>
</g></svg>
