<?xml version="1.0" encoding="UTF-8"?>
<svg width="732.56" height="131.27" version="1.1" viewBox="0 0 732.55626 131.2672" xml:space="preserve" xmlns="http://www.w3.org/2000/svg"><g transform="matrix(1.3333 0 0 -1.3333 -194.98 462.49)"><g transform="translate(344.16 284.5)"><path d="m0 0v62.362h42.52l2.834-17.008h-28.346v-7.37h19.842l2.835-17.008h-22.677v-20.976z"/></g><path d="m412.19 284.5h-17.008v62.362h17.008z"/><g transform="translate(576.6 284.5)"><path d="m0 0v62.362h42.52l2.834-17.008h-28.346v-7.37h19.842l2.835-17.008h-22.677v-20.976z" fill="#d2140a"/></g><path d="m644.63 284.5h-17.008v62.362h17.008z" fill="#d2140a"/><g transform="translate(429.2 346.86)"><path d="m0 0-11.339-11.339v-39.685l11.339-11.338h34.016v36.85l-17.008-2.834v-17.008h-11.339v28.346h28.347v17.008z"/></g><g transform="translate(468.88 346.86)"><path d="m0 0v-62.362h17.008v23.403l11.338 1.894v-25.297h17.008v62.362h-17.008v-19.821l-11.338-1.894v21.715z"/></g><g transform="translate(519.91 346.86)"><path d="m0 0v-17.008h14.173v-45.354h17.008v45.354h14.173v17.008z"/></g><g transform="translate(650.3 346.86)"><path d="m0 0v-17.008h14.173v-45.354h17.008v45.354h14.173v17.008z" fill="#d2140a"/></g><g transform="translate(366.6 274.31)"><path d="m0 0-4.334-10.218 3.684-3.683v-11.99h-5.435v10.221h-10.905v-10.221h-5.453v25.891h5.453v-10.218h6.716l4.352 10.218z"/></g><path d="m382.54 263.4h10.905v5.452h-10.905zm12.656 10.905 3.702-3.683v-8.973l-3.702-3.701 4.298-9.534h-5.977l-4.297 9.534h-6.68v-9.534h-5.453v25.891z"/><path d="m409.99 274.31h5.453v-25.891h-5.453z"/><g transform="translate(444.35 274.31)"><path d="m0 0 3.702-3.683v-1.769h-16.358v-4.766h12.656l3.702-3.683v-8.307l-3.702-3.683h-14.426l-3.683 3.683v1.77h16.358v4.768h-12.675l-3.683 3.683v8.304l3.683 3.683z"/></g><g transform="translate(480.66 274.31)"><path d="m0 0v-5.452h-8.179v-20.439h-5.452v20.439h-8.18v5.452z"/></g><path d="m491.46 274.31h5.452v-25.891h-5.452z"/><g transform="translate(529.57 274.31)"><path d="m0 0v-22.208l-3.376-3.376-12.965 14.625v-14.932h-5.452v22.208l3.376 3.376 12.982-14.624v14.931z"/></g><g transform="translate(562.26 274.31)"><path d="m0 0v-5.452h-16.359v-4.766h12.26v-5.452h-12.26v-4.768h16.359v-5.453h-18.128l-3.683 3.683v22.208z"/></g><g transform="translate(594.87 274.31)"><path d="m0 0v-25.891h-5.452v10.221h-10.907v-10.221h-5.452v25.891h5.452v-10.218h10.907v10.218z"/></g><path d="m611.2 263.4h10.906v5.452h-10.906zm12.658 10.905 3.701-3.683v-22.208h-5.453v9.534h-10.906v-9.534h-5.452v22.208l3.683 3.683z"/><g transform="translate(662.96 270.62)"><path d="m0 0v-22.208h-5.435v15.256l-6.824-7.438-6.807 7.438v-15.256h-5.452v22.208l3.376 3.359 8.883-10.256 8.902 10.256z"/></g><g transform="translate(695.65 274.31)"><path d="m0 0v-22.208l-3.376-3.376-12.965 14.625v-14.932h-5.452v22.208l3.376 3.376 12.982-14.624v14.931z"/></g><g transform="translate(232.44 261.81)"><path d="m0 0-32.648-8.163v23.844h-32.006l6.123 24.486h-22.447l10.204 40.81h141.55l10.204-40.81h-22.447l6.12-24.486h-32.003v-23.844z" fill="#fff"/></g><g transform="translate(171.23 330.54)"><path d="m0 0-4.081-16.324h44.891v-8.162h-24.486l-4.081-16.324h28.567v-20.405l16.324 4.081v57.134z"/></g><g transform="translate(306.4 346.86)"><path d="m0 0h-147.92l-12.245-48.972h22.447l-6.123-24.486h33.153v-24.989l36.728 9.183 36.728-9.183v24.989h33.151l-6.12 24.486h22.446zm-6.373-8.162 8.163-32.648h-22.446l6.121-24.486h-30.86v-22.697l-28.566 7.142-28.566-7.142v22.697h-30.86l6.123 24.486h-22.448l8.163 32.648z"/></g><g transform="translate(277.33 306.05)"><path d="m0 0h-24.486v8.162h44.891l-4.081 16.324h-57.134v-57.134l16.324-4.081v20.405h28.567z" fill="#d2140a"/></g></g></svg>
