<?xml version="1.0" encoding="UTF-8"?>
<svg width="120mm" height="68.521mm" version="1.1" viewBox="0 0 120.00018 68.520729" xmlns="http://www.w3.org/2000/svg">
	<g transform="translate(-24.667 -24.615)">
		<g>
			<path d="m42.06 35.977-2.8406 11.362h31.245v5.6808h-17.043l-2.8406 11.362h19.883v14.202l11.362-2.8406v-39.766z"/>
			<path d="m136.14 24.615h-102.96l-8.5224 34.085h15.623l-4.2616 17.043h23.075v17.393l25.563-6.3913 25.563 6.3913v-17.393h23.073l-4.2598-17.043h15.623zm-4.4355 5.6808 5.6815 22.724h-15.623l4.2598 17.043h-21.479v15.797l-19.882-4.971-19.883 4.971v-15.797h-21.479l4.2616-17.043h-15.624l5.6818-22.724z"/>
			<path d="m115.91 53.019h-17.043v-5.6808h31.245l-2.8402-11.362h-39.766v39.766l11.362 2.8406v-14.202h19.883z" fill="#d2140a"/>
		</g>
		<path transform="matrix(.26458 0 0 .26458 24.667 24.615)" d="m151.65 201.42v-29.834h-40.406c-22.223 0-40.406-0.11643-40.406-0.25874s3.5229-14.345 7.8287-31.561 7.8287-31.646 7.8287-32.066c0-0.67287-3.4678-0.76382-29.126-0.76382-16.019 0-29.187-0.0608-29.261-0.13513-0.07432-0.0743 4.6514-19.28 10.502-42.68l10.637-42.545 177.57 0.12698 177.57 0.12698 10.497 41.921c5.7733 23.057 10.504 42.205 10.512 42.553 0.0119 0.49795-6.1389 0.63134-29.111 0.63134-16.019 0-29.21 0.0839-29.312 0.18642-0.10253 0.10253 3.4305 14.649 7.8512 32.325l8.0377 32.138h-81.194v29.834c0 28.178-0.049 29.819-0.88388 29.566-0.48614-0.14697-17.363-4.3815-37.505-9.4102l-36.621-9.1429-36.615 9.1433c-20.138 5.0288-37.013 9.2634-37.499 9.4102-0.83483 0.25205-0.88388-1.3888-0.88388-29.567zm43.689-2.7319 20.708-5.1938 0.12792-75.351 0.12792-75.351h-150.78l-5.249 21.087c-2.8869 11.598-5.3518 21.371-5.4774 21.718-0.18193 0.50278 11.816 0.63135 58.92 0.63135h59.148v20.701l-32.167 0.13-32.167 0.13001-5.399 21.592-5.399 21.592h75.132v26.769c0 25.163 0.053 26.768 0.88389 26.754 0.48613-8e-3 10.203-2.352 21.592-5.2086zm85.105-21.546v-26.769h37.46c20.603 0 37.544-0.0837 37.646-0.18605 0.10232-0.10234-2.2368-9.8756-5.198-21.718l-5.384-21.532h-64.524v-20.708h58.926c32.409 0 59.032-0.10603 59.161-0.23561 0.18195-0.18195-7.2346-30.685-10.044-41.307l-0.50086-1.894h-150.48l0.12792 75.352 0.12793 75.352 20.456 5.1608c11.251 2.8384 20.853 5.1818 21.339 5.2073 0.83126 0.0437 0.88388-1.5472 0.88388-26.723z" fill="#fff" stroke-width=".50508"/>
	</g>
</svg>
